
<svg vversion="1.1" id="logo" xmlns="http://www.w3.org/2000/svg" xmlns:xlink="http://www.w3.org/1999/xlink" x="0px" y="0px"
	  viewBox="0 0 352 272" style="enable-background:new 0 0 352 272;" xml:space="preserve">
<defs>
	<style type="text/css">

		.st0{fill:#fff;;stroke:#000000;stroke-width:5;stroke-miterlimit:5;}

		.st0 {
			stroke-dasharray: 2000;
			stroke-dashoffset:0;
			-webkit-animation: dash 4s linear forwards;
			-o-animation: dash 4s linear forwards;
			-moz-animation: dash 4s linear forwards;
			animation: dash 4s linear forwards;
		}

		#logo {
		cursor:pointer;
		}

		#logo:hover .st0 {
			fill:#000;
			transition: .8s;
		}

		#logo.clickit .st0 {
			fill:#1b75bb;
			stroke: #1b75bb;
		}

		@-webkit-keyframes dash {
			from {
				stroke-dashoffset: 2000;
			}
			to {
				stroke-dashoffset: 0;
			}
		}

	</style>

	<script type="text/javascript">

		var clicker = document.querySelector('#logo');

		clicker.addEventListener('click', function() {

			this.classList.toggle('clickit');

		});

	</script>

</defs>
<g class="st0" transform="translate(0.000000,300.000000) scale(0.100000,-0.100000)">
<path d="M4311 1947 c-38 -47 -53 -157 -28 -207 15 -29 44 -29 94 1 60 37 66
125 12 193 -22 28 -60 34 -78 13z"/>
<path d="M655 1896 c-78 -19 -174 -75 -202 -117 -43 -66 -18 -69 102 -13 83
39 210 46 278 16 69 -30 89 -69 84 -158 -6 -115 -46 -161 -159 -184 -46 -9
-58 -15 -58 -30 0 -29 36 -43 110 -43 159 -1 283 120 282 277 0 69 -20 128
-60 169 -75 80 -242 116 -377 83z"/>
<path d="M2913 1879 c-55 -27 -129 -109 -172 -188 -28 -54 -36 -62 -55 -56
-11 3 -36 9 -55 12 -28 5 -33 3 -29 -13 2 -10 19 -29 38 -42 19 -13 34 -29 33
-35 -1 -7 -18 -64 -38 -127 -24 -76 -45 -125 -63 -144 -41 -43 -130 -98 -155
-94 -21 3 -22 7 -22 123 0 66 4 137 8 157 l8 36 56 -5 c63 -7 83 7 83 58 0 26
-3 27 -60 34 l-60 7 21 34 c41 67 -6 153 -67 125 -22 -10 -64 -84 -88 -153 -3
-12 -16 -18 -34 -18 -35 0 -49 -15 -54 -55 -3 -27 0 -30 30 -33 25 -3 32 -7
28 -20 -3 -9 -10 -48 -16 -87 -10 -69 -12 -71 -79 -137 -64 -64 -111 -87 -111
-55 0 6 15 69 34 139 l34 126 -19 41 c-10 23 -25 44 -34 47 -8 4 -38 -3 -65
-15 -27 -11 -62 -21 -79 -21 -25 0 -34 7 -51 39 -29 58 -67 84 -110 77 -63
-10 -80 -71 -35 -124 l24 -29 -24 -69 c-14 -38 -25 -78 -25 -90 0 -26 -28 -52
-69 -64 -35 -10 -35 -10 -20 58 15 62 5 117 -26 148 -20 20 -34 24 -81 24 -52
0 -59 -3 -94 -38 -63 -63 -63 -154 1 -227 l31 -35 -27 -10 c-137 -52 -226 77
-154 222 37 74 118 118 215 118 63 0 81 11 56 33 -54 49 -172 62 -264 27 -65
-24 -138 -95 -168 -163 -12 -26 -24 -78 -27 -115 -11 -128 53 -217 175 -243
94 -19 187 6 254 69 23 21 38 26 90 26 35 1 70 5 79 9 14 7 17 0 23 -42 8 -63
28 -85 70 -77 16 4 40 13 53 21 22 15 23 22 23 128 1 61 7 137 14 167 l12 55
51 3 51 3 -19 -52 c-23 -60 -35 -160 -25 -213 4 -19 18 -49 32 -66 22 -25 33
-30 70 -30 73 0 135 41 196 130 l17 25 0 -27 c1 -37 18 -79 43 -105 41 -43
149 -19 245 54 l36 28 -6 -30 c-4 -17 -10 -94 -13 -172 -8 -164 -2 -184 65
-204 60 -18 126 -4 169 36 l37 33 0 89 c0 48 -4 130 -8 181 l-9 92 39 -22 c54
-32 158 -33 201 -1 l30 22 13 -31 c27 -66 149 -118 246 -104 52 7 129 45 161
78 19 22 29 24 76 20 37 -3 62 1 85 13 18 9 34 15 35 13 1 -2 13 -18 26 -37
51 -74 195 -105 286 -61 23 12 63 43 88 70 l46 49 11 -44 c17 -66 48 -95 102
-95 57 0 107 21 157 66 l39 35 39 -39 c49 -49 97 -66 187 -66 76 0 148 28 193
77 20 21 29 23 72 19 93 -9 160 43 160 124 0 51 -12 56 -50 19 -27 -26 -90
-50 -90 -35 0 5 5 31 11 58 15 62 5 117 -26 148 -20 20 -34 24 -81 24 -52 0
-59 -3 -94 -38 -63 -63 -63 -154 1 -227 l31 -35 -27 -10 c-137 -52 -226 77
-154 222 37 74 118 118 215 118 63 0 81 11 56 33 -32 29 -90 47 -151 47 -158
0 -285 -115 -307 -277 -6 -45 -13 -58 -51 -94 -33 -30 -51 -39 -71 -37 -37 4
-39 32 -8 171 30 131 32 164 12 212 -18 42 -57 56 -85 30 -28 -25 -62 -109
-80 -203 -16 -75 -22 -87 -65 -133 -54 -57 -97 -79 -156 -79 -56 0 -86 33 -96
106 -6 54 -6 54 42 111 27 32 83 95 125 141 107 118 143 180 143 248 1 70 -22
95 -93 102 -66 6 -144 -31 -202 -96 -86 -96 -168 -323 -169 -463 0 -51 -11
-65 -59 -79 -35 -10 -35 -10 -20 58 15 62 5 117 -26 148 -20 20 -34 24 -81 24
-52 0 -59 -3 -94 -38 -63 -63 -63 -154 1 -227 l31 -35 -27 -10 c-137 -52 -226
77 -154 222 37 74 118 118 215 118 63 0 81 11 56 33 -54 49 -172 62 -264 27
-35 -13 -70 -37 -100 -67 -54 -56 -74 -93 -89 -162 -12 -57 -63 -111 -103
-111 -31 0 -73 50 -82 96 l-7 36 -54 -4 -55 -5 6 36 c3 20 14 61 23 91 17 52
20 55 53 58 106 9 227 79 256 149 17 40 18 113 2 148 -25 56 -119 72 -195 34z
m1115 -115 c2 -11 -15 -46 -38 -80 -57 -83 -140 -187 -140 -176 0 19 43 148
61 183 44 88 109 128 117 73z"/>
<path d="M618 1702 c-78 -86 -159 -356 -162 -535 -1 -86 2 -110 14 -117 21
-13 90 -2 120 20 24 16 25 24 32 141 4 68 20 185 34 259 32 160 37 263 13 268
-9 1 -32 -14 -51 -36z"/>
</g>
</svg>
