
<svg
   xmlns:svg="http://www.w3.org/2000/svg"
   xmlns="http://www.w3.org/2000/svg"
   version="1.1"
   width="1024"
   height="408"
   viewBox="-4.2 -4.2 372.14127 148.4"
   id="logo">
<defs>
  <style type="text/css">

    .st0{fill:#fff;;stroke:#000000;stroke-width:5;stroke-miterlimit:5;}

    .st0 {
      stroke-dasharray: 2000;
      stroke-dashoffset:0;
      -webkit-animation: dash 4s linear forwards;
      -o-animation: dash 4s linear forwards;
      -moz-animation: dash 4s linear forwards;
      animation: dash 4s linear forwards;
    }

    #logo {
    cursor:pointer;
    }

    #logo:hover .st0 {
      fill:#000;
      transition: .8s;
    }

    #logo.clickit .st0 {
      fill:#1b75bb;
      stroke: #1b75bb;
    }

    @-webkit-keyframes dash {
      from {
        stroke-dashoffset: 2000;
      }
      to {
        stroke-dashoffset: 0;
      }
    }

  </style>

  <script type="text/javascript">

    var clicker = document.querySelector('#logo');

    clicker.addEventListener('click', function() {

      this.classList.toggle('clickit');

    });

  </script>

</defs>
  <path class="st0"
     d="m 153.58875,44.659 c 8.53876,0 14.41876,-6.43875 14.41876,-14.7 0,-8.25875 -5.88,-14.55875 -14.41876,-14.55875 -8.53999,0 -14.27999,5.74 -14.27999,14.55875 0,8.82125 5.74,14.7 14.27999,14.7 M 334.0825,74.62 c 6.1625,0 9.0775,3.28375 9.0775,7.34375 0,5.38 -5.01,14.49875 -28.73124,14.76875 0.9375,-13.0175 9.485,-22.1125 19.65374,-22.1125 m -17.45625,35.76375 c 27.05875,0.72 47.11501,-9.56 47.11501,-29.68 0,-14.84125 -11.45501,-25.68375 -29.51751,-25.68375 -24.22124,0 -36.82124,18.62 -41.86,38.5 -2.93999,11.62 -7.42,26.88 -16.38,26.88 -5.6,0 -7.14,-5.6 -7.14,-12.6 l 0,-23.38 c 0,-19.18 -9.38,-29.4 -24.07999,-29.4 -13.02,0 -23.09126,7.84 -28.83126,17.35875 L 215.37375,56.28 l -18.89875,0 c 0,0 -2.095,64.12 -23.24125,64.12 -7.28,0 -9.66,-8.26875 -9.66,-17.64 l 0,-46.48 -18.47875,0 c -9.8,11.06 -22.94875,14.41875 -32.75,14.41875 -17.63999,0 -31.22,-12.31875 -31.22,-33.74 C 81.125,26.46 85.18501,21 90.925,21 c 5.46,0 9.10001,4.89875 9.10001,14.84 0,5.65125 -1.51376,11.845 -2.63,15.51 0,0 5.43624,9.4825 20.29874,6.5725 C 120.85,50.915 122.56625,41.84 122.56625,33.88 122.56625,12.45875 111.64501,0 91.625,0 c -20.58,0 -32.62,15.82 -32.62,36.68 0,20.66625 9.66126,38.405 25.59,46.4875 -6.69749,13.4 -15.22249,25.2025 -24.11,34.095 C 44.3575,97.7675 29.77626,71.7575 23.79375,21 L 0,21 c 10.99251,84.53375 43.75375,111.45125 52.415,116.61875 4.9,2.94125 9.12,2.80125 13.60001,0.28 C 73.04876,133.9 94.165,112.785 105.87126,88.0525 116.37375,88.025 131.39876,85.54375 141.035,78.25625 l 0,24.08375 c 0,27.15875 10.36,37.66 26.45876,37.66 12.915,0 22.88499,-10.0675 27.71875,-21.3625 l 0,19.82125 22.26124,0 0,-23.38 C 217.47375,88.34 226.42376,75.32 237.625,75.32 c 6.29876,0 8.96001,4.2 8.96001,14.84 l 0,21.28 c 0,18.05875 9.51874,28.56 23.79875,28.56 11.73375,0 22.26624,-9.15375 26.41125,-20.7275 C 303.87,133.9 320.15876,140 334.36375,140 c 10.73251,0 19.48,-2.22875 26.29625,-6.28875 l 0,-20.2975 c -5.76749,3.92625 -12.88125,7.26625 -23.21625,7.26625 -9.855,0 -17.2825,-3.1225 -20.8175,-10.29625"/>
</svg>

